# xmcd CD database file
#
# Track frame offsets:
#	150
#	16667
#	29615
#	42263
#	56177
#	66167
#	80727
#	98277
#	112220
#	127742
#	143727
#	155588
#	168308
#	188048
#	205067
#	224447
#	241553
#	257948
#	271907
#	289907
#	307880
#
# Disc length: 4329 seconds
#
# Revision: 0
# Processed by: cddbd v1.5.2PL0 Copyright (c) Steve Scherf et al.
# Submitted via: CDex 1.70beta2
#
DISCID=2710e715
DTITLE=ChartBreakers - ChartBreakers CGC-522
DYEAR=1900
DGENRE=Country
TTITLE0=Alabama - When We Make Love
TTITLE1=Mark Chesnutt - Your Love Is A Miracle
TTITLE2=Lorrie Morgan - What Part Of No
TTITLE3=Aaron Tippin - You've Got To Stand For Something
TTITLE4=Randy Travis - Heroes And Friends
TTITLE5=Randy Travis - I Won't Need You Anymore
TTITLE6=Travis Tritt - Nothing Short Of Dying
TTITLE7=Travis Tritt - T-R-O-U-B-L-E
TTITLE8=Tanya Tucker - If It Don't Come Easy
TTITLE9=Tanya Tucker - Oh What It Did To Me
TTITLE10=Dwight Yoakam - It Only Hurts When I Cry
TTITLE11=Trisha Yearwood - The Wrong Side Of Memphis
TTITLE12=Judds - Young Love
TTITLE13=Little Texas - You And Forever And Me
TTITLE14=Ronnie Milsap - Lost In The Fifties Tonight
TTITLE15=Reba McEntire - Rumor Has It
TTITLE16=Reba McEntire - Somebody Should Leave
TTITLE17=Keith Whitley - I'm Over You
TTITLE18=Keith Whitley - It Ain't Nothin'
TTITLE19=Randy Travis - It's Just A Matter Of TIme
TTITLE20=Tanya Tucker - Love Me Like You Used To
EXTD=YEAR: 1900
EXTT0=
EXTT1=
EXTT2=
EXTT3=
EXTT4=
EXTT5=
EXTT6=
EXTT7=
EXTT8=
EXTT9=
EXTT10=
EXTT11=
EXTT12=
EXTT13=
EXTT14=
EXTT15=
EXTT16=
EXTT17=
EXTT18=
EXTT19=
EXTT20=
PLAYORDER=
